<svg width="201" height="201" viewBox="0 0 201.685 56.42" xmlns="http://www.w3.org/2000/svg"><g id="svgGroup" stroke-linecap="round" fill-rule="nonzero" font-size="9pt" stroke="#000" stroke-width="0.25mm" fill="#fea1ac" style="stroke:#000;stroke-width:0.25mm;fill:#fea1ac"><path d="M 175.657 55.5 L 168.907 55.5 L 168.907 0 L 175.657 0 L 175.657 22.725 Q 177.757 19.65 180.982 17.625 Q 184.207 15.6 188.557 15.6 A 12.924 12.924 0 0 1 197.078 18.223 A 9.99 9.99 0 0 1 198.419 19.575 A 15.811 15.811 0 0 1 201.678 29.657 A 25.612 25.612 0 0 1 201.682 30.075 L 201.682 55.5 L 194.932 55.5 L 194.932 30.825 Q 194.932 26.625 192.982 24.075 Q 191.032 21.525 187.507 21.525 Q 184.057 21.525 180.944 23.963 Q 177.832 26.4 175.657 29.7 L 175.657 55.5 Z M 28.432 20.4 L 28.432 0 L 35.182 0 L 35.182 46.05 A 4.172 4.172 0 0 0 36.5 49.717 A 2.2 2.2 0 0 0 36.569 49.763 Q 37.957 50.625 39.607 50.625 L 38.182 55.875 A 9.368 9.368 0 0 1 31.53 53.731 A 7.488 7.488 0 0 1 29.482 50.175 Q 27.832 52.5 24.869 54.45 Q 21.907 56.4 17.407 56.4 Q 12.607 56.4 8.632 53.925 Q 4.657 51.45 2.332 46.913 Q 0.007 42.375 0.007 36.225 Q 0.007 30.3 2.369 25.65 Q 4.732 21 8.669 18.3 Q 12.607 15.6 17.332 15.6 Q 21.232 15.6 24.044 17.175 Q 26.857 18.75 28.432 20.4 Z M 28.432 45.675 L 28.432 26.325 Q 27.007 24.525 24.457 22.988 Q 21.907 21.45 18.832 21.45 Q 15.232 21.45 12.532 23.4 Q 9.832 25.35 8.369 28.613 Q 6.907 31.875 6.907 36 Q 6.907 40.125 8.482 43.388 Q 10.057 46.65 12.794 48.525 Q 15.532 50.4 18.907 50.4 Q 21.682 50.4 24.194 49.088 Q 26.707 47.775 28.432 45.675 Z M 124.282 38.775 L 96.982 38.775 Q 97.657 44.25 100.807 47.325 Q 103.957 50.4 109.132 50.4 Q 112.507 50.4 115.207 49.688 Q 117.907 48.975 120.382 47.85 L 121.957 53.625 Q 119.257 54.825 115.882 55.613 Q 112.507 56.4 108.307 56.4 Q 99.907 56.4 94.994 51.038 A 19.446 19.446 0 0 1 90.285 39.753 A 33.32 33.32 0 0 1 90.082 36 Q 90.082 30.15 92.294 25.538 Q 94.507 20.925 98.482 18.263 Q 102.457 15.6 107.707 15.6 Q 113.332 15.6 117.044 18.038 Q 120.757 20.475 122.632 24.6 Q 124.507 28.725 124.507 33.675 Q 124.507 36.3 124.282 38.775 Z M 96.907 33.3 L 118.282 33.3 A 13.289 13.289 0 0 0 116.177 25.442 A 9.135 9.135 0 0 0 115.432 24.525 Q 112.582 21.45 107.557 21.45 Q 103.207 21.45 100.357 24.488 A 13.992 13.992 0 0 0 97.042 32.22 A 25.149 25.149 0 0 0 96.907 33.3 Z M 160.432 17.925 L 158.407 23.625 Q 156.307 22.575 154.394 22.088 Q 152.482 21.6 150.157 21.6 Q 144.907 21.6 141.344 25.388 A 14.253 14.253 0 0 0 137.796 35.027 A 24.024 24.024 0 0 0 137.782 35.85 Q 137.782 39.9 139.282 43.2 Q 140.782 46.5 143.444 48.45 Q 146.107 50.4 149.707 50.4 Q 152.557 50.4 154.582 49.763 Q 156.607 49.125 158.932 47.925 L 161.032 53.625 Q 158.707 54.9 155.819 55.65 Q 152.932 56.4 149.257 56.4 Q 143.707 56.4 139.544 53.813 Q 135.382 51.225 133.132 46.613 Q 130.882 42 130.882 36 Q 130.882 30.375 133.169 25.725 Q 135.457 21.075 139.732 18.338 Q 144.007 15.6 149.782 15.6 Q 153.082 15.6 155.594 16.2 Q 158.107 16.8 160.432 17.925 Z M 64.282 56.4 Q 58.732 56.4 54.307 53.813 Q 49.882 51.225 47.369 46.613 Q 44.857 42 44.857 36 Q 44.857 29.7 47.407 25.125 Q 49.957 20.55 54.382 18.075 Q 58.807 15.6 64.282 15.6 Q 69.757 15.6 74.144 18.075 Q 78.532 20.55 81.119 25.088 Q 83.707 29.625 83.707 35.85 Q 83.707 42.075 81.157 46.688 Q 78.607 51.3 74.219 53.85 Q 69.832 56.4 64.282 56.4 Z M 64.282 50.4 Q 70.207 50.4 73.507 46.388 Q 76.807 42.375 76.807 36 Q 76.807 32.1 75.157 28.838 Q 73.507 25.575 70.694 23.588 Q 67.882 21.6 64.282 21.6 Q 58.357 21.6 55.057 25.5 Q 51.757 29.4 51.757 35.85 Q 51.757 39.75 53.407 43.088 Q 55.057 46.425 57.869 48.413 Q 60.682 50.4 64.282 50.4 Z"/></g></svg>